<svg xmlns="http://www.w3.org/2000/svg" viewBox="0 0 37.94 15.4"><title>climb1Asset 1</title><g id="Layer_2" data-name="Layer 2"><g id="Layer_1-2" data-name="Layer 1"><path d="M4.42,5.81a1.75,1.75,0,0,0-1.5.6,3,3,0,0,0-.44,1.75V12c0,1.39.62,2.08,1.87,2.08a1.51,1.51,0,0,0,1.06-.26,1.44,1.44,0,0,0,.32-.58A1.71,1.71,0,0,1,6,12.68c.12-.16.43-.24.9-.24q1.23,0,1.23,1.5a1,1,0,0,1-.65,1,4.85,4.85,0,0,1-1.94.29h-3Q0,15.23,0,12.89V6.94C0,5.4.94,4.62,2.69,4.62H5.54A4.1,4.1,0,0,1,7.48,5a1,1,0,0,1,.65.87c0,1-.41,1.43-1.23,1.43a1.41,1.41,0,0,1-1-.22,1.69,1.69,0,0,1-.32-.51A1.62,1.62,0,0,0,5.32,6C5.2,5.89,4.9,5.81,4.42,5.81Z"/><path d="M10.06,15.4c-.81,0-1.22-.54-1.22-1.63V1.56C8.84.52,9.25,0,10.06,0s1.19.52,1.19,1.56V13.77C11.25,14.86,10.86,15.4,10.06,15.4Z"/><path d="M13.7,15.37c-.84,0-1.26-.52-1.26-1.57V6.29c0-1.06.42-1.6,1.26-1.6s1.19.51,1.19,1.53v7.55C14.89,14.84,14.49,15.37,13.7,15.37Z"/><path d="M23.36,7.34v6.19q0,1.8-1.23,1.8c-.84,0-1.25-.6-1.25-1.8V7.34c0-1-.44-1.53-1.3-1.53q-1,0-1,1.53v6.19q0,1.8-1.29,1.8T16,13.77V7c0-1.56.92-2.35,2.75-2.35h7c1.75,0,2.62.82,2.62,2.32V13.7c0,1.09-.42,1.63-1.26,1.63s-1.25-.6-1.25-1.8V7.34c0-1-.4-1.53-1.19-1.53S23.36,6.32,23.36,7.34Z"/><path d="M34.27,4.62h1.09a2.72,2.72,0,0,1,1.92.62,2.19,2.19,0,0,1,.66,1.7v6a2.22,2.22,0,0,1-.68,1.82,3,3,0,0,1-2,.56H32.47c-1.79,0-2.69-.81-2.69-2.42v-11c0-1.09.43-1.63,1.3-1.63S32.27.83,32.27,2l0,1.19C32.3,4.15,33,4.62,34.27,4.62ZM35.5,12V7.89c0-1.38-.48-2.08-1.43-2.08h-.44c-.89,0-1.33.75-1.33,2.25l0,4c0,1.38.46,2.07,1.39,2.07h.48C35,14.11,35.5,13.41,35.5,12Z"/><path d="M15.21,2.16H14.14v1h-1V.71h1v.85h1.07V.71h.95V3.13h-.95Z"/><path d="M18.15.63c.57,0,1.65,0,1.65,1.29s-1.08,1.29-1.65,1.29-1.65,0-1.65-1.29S17.57.63,18.15.63Zm0,2c.39,0,.63-.19.63-.68s-.24-.68-.63-.68-.64.19-.64.68S17.76,2.6,18.15,2.6Z"/><path d="M20.76,1.32h-.88V.71H22.6v.61h-.88V3.13h-1Z"/><path d="M22.81.71h2.57V1.3H23.77v.33h1.49v.59H23.77v.32h1.61v.59H22.81Z"/><path d="M25.69.71h.95V2.48h1.48v.65H25.69Z"/></g></g></svg>